<?xml version="1.0" encoding="UTF-8"?>
<svg id="_1080_x_1080_px_Logo_4" data-name="1080 x 1080 px Logo 4" xmlns="http://www.w3.org/2000/svg" xmlns:xlink="http://www.w3.org/1999/xlink" viewBox="0 0 1080 1080">
  <defs>
    <style>
      .cls-1 {
        fill: #fff;
      }

      .cls-2 {
        fill: none;
      }

      .cls-3 {
        clip-path: url(#clippath-1);
      }

      .cls-4 {
        clip-path: url(#clippath-3);
      }

      .cls-5 {
        fill: #211915;
      }

      .cls-6 {
        clip-path: url(#clippath-2);
      }

      .cls-7 {
        fill: #b71c1c;
      }

      .cls-8 {
        clip-path: url(#clippath);
      }
    </style>
    <clipPath id="clippath">
      <path class="cls-2" d="M540,140c-220.92,0-400,179.08-400,400s179.08,400,400,400,400-179.08,400-400-179.08-400-400-400ZM466.78,811.13v-36.28l21.77,18.14,14.51,18.14h-36.28ZM667.32,354.63l-39.58,26.39-26.39,40.24-9.9,42.22,11.21,18.47,11.21,29.31-29.03,19.51-40.9,17.15-1.98,13.86-14.51,12.53-25.07-3.96,8.12,30.35-11.42,39.58-11.21,1.98-14.51,18.47,19.79,20.45-15.17,25.72-3.96,15.84-14.51,13.19,7.26,29.03-34.3-5.94v-14.51h-15.84l-3.96-18.47,7.26-32.33,10.55-50.79-17.81-62.01,12.53-40.24v-39.58l11.21-33.64-11.21-40.24,8.57-36.95,12.53-37.6,7.26-2.64-2.64-41.56,18.47-12.53,7.26-24.41,26.39-2.64,11.21,16.49,10.55-16.49h13.86l75.2,54.09-18.47,33.64h46.18l15.17-27.05,10.55,1.32v23.76h.03Z"/>
    </clipPath>
    <clipPath id="clippath-1">
      <circle class="cls-2" cx="540" cy="540" r="400"/>
    </clipPath>
    <clipPath id="clippath-2">
      <polygon class="cls-1" points="667.32 354.63 627.74 381.02 601.35 421.26 591.46 463.48 602.67 481.95 613.88 511.26 584.86 530.77 543.96 547.92 541.98 561.77 527.47 574.3 502.4 570.35 510.52 600.69 499.1 640.27 487.89 642.25 473.38 660.72 493.17 681.17 478 706.89 474.04 722.73 459.53 735.92 466.79 764.95 432.48 759.01 432.48 744.5 416.65 744.5 412.69 726.03 419.94 693.71 430.49 642.91 412.68 580.91 425.21 540.66 425.21 501.08 436.42 467.44 425.21 427.2 433.78 390.25 446.31 352.65 453.57 350.01 450.93 308.45 469.39 295.92 476.65 271.51 503.04 268.87 514.25 285.36 524.8 268.87 538.66 268.87 613.86 322.96 595.39 356.6 641.57 356.6 656.74 329.55 667.3 330.87 667.3 354.63 667.32 354.63"/>
    </clipPath>
    <clipPath id="clippath-3">
      <path class="cls-1" d="M613.22,91.32c-220.92,0-400,179.08-400,400s179.08,400,400,400,400-179.08,400-400S834.14,91.32,613.22,91.32ZM540,762.45v-36.28l21.77,18.14,14.51,18.14h-36.28ZM740.54,305.95l-39.58,26.39-26.39,40.24-9.9,42.22,11.21,18.47,11.21,29.31-29.03,19.51-40.9,17.15-1.98,13.86-14.51,12.53-25.07-3.96,8.12,30.35-11.42,39.58-11.21,1.98-14.51,18.47,19.79,20.45-15.17,25.72-3.96,15.84-14.51,13.19,7.26,29.03-34.3-5.94v-14.51h-15.84l-3.96-18.47,7.26-32.33,10.55-50.79-17.81-62.01,12.53-40.24v-39.58l11.21-33.64-11.21-40.24,8.57-36.95,12.53-37.6,7.26-2.64-2.64-41.56,18.47-12.53,7.26-24.41,26.39-2.64,11.21,16.49,10.55-16.49h13.86l75.2,54.09-18.47,33.64h46.18l15.17-27.05,10.55,1.32v23.76h.03Z"/>
    </clipPath>
  </defs>
  <g id="Graphic_Elements" data-name="Graphic Elements">
    <g>
      <g class="cls-8">
        <rect class="cls-5" x="140" y="140" width="156" height="800"/>
        <rect class="cls-5" x="300.99" y="140" width="156" height="800"/>
        <rect class="cls-5" x="461.99" y="140" width="156" height="800"/>
        <rect class="cls-5" x="622.98" y="140" width="156" height="800"/>
        <rect class="cls-5" x="783.97" y="140" width="156" height="800"/>
      </g>
      <g class="cls-3">
        <g>
          <rect class="cls-7" x="140" y="220.75" width="156" height="720"/>
          <rect class="cls-7" x="300.99" y="300" width="156" height="640"/>
          <rect class="cls-7" x="461.99" y="420.75" width="156" height="520"/>
          <rect class="cls-7" x="622.98" y="580.75" width="156" height="360"/>
          <rect class="cls-7" x="783.97" y="740.75" width="156" height="200"/>
        </g>
      </g>
      <g>
        <polygon class="cls-1" points="667.32 354.63 627.74 381.02 601.35 421.26 591.46 463.48 602.67 481.95 613.88 511.26 584.86 530.77 543.96 547.92 541.98 561.77 527.47 574.3 502.4 570.35 510.52 600.69 499.1 640.27 487.89 642.25 473.38 660.72 493.17 681.17 478 706.89 474.04 722.73 459.53 735.92 466.79 764.95 432.48 759.01 432.48 744.5 416.65 744.5 412.69 726.03 419.94 693.71 430.49 642.91 412.68 580.91 425.21 540.66 425.21 501.08 436.42 467.44 425.21 427.2 433.78 390.25 446.31 352.65 453.57 350.01 450.93 308.45 469.39 295.92 476.65 271.51 503.04 268.87 514.25 285.36 524.8 268.87 538.66 268.87 613.86 322.96 595.39 356.6 641.57 356.6 656.74 329.55 667.3 330.87 667.3 354.63 667.32 354.63"/>
        <g class="cls-6">
          <g>
            <path class="cls-1" d="M613.22,91.32c-220.92,0-400,179.08-400,400s179.08,400,400,400,400-179.08,400-400S834.14,91.32,613.22,91.32ZM540,762.45v-36.28l21.77,18.14,14.51,18.14h-36.28ZM740.54,305.95l-39.58,26.39-26.39,40.24-9.9,42.22,11.21,18.47,11.21,29.31-29.03,19.51-40.9,17.15-1.98,13.86-14.51,12.53-25.07-3.96,8.12,30.35-11.42,39.58-11.21,1.98-14.51,18.47,19.79,20.45-15.17,25.72-3.96,15.84-14.51,13.19,7.26,29.03-34.3-5.94v-14.51h-15.84l-3.96-18.47,7.26-32.33,10.55-50.79-17.81-62.01,12.53-40.24v-39.58l11.21-33.64-11.21-40.24,8.57-36.95,12.53-37.6,7.26-2.64-2.64-41.56,18.47-12.53,7.26-24.41,26.39-2.64,11.21,16.49,10.55-16.49h13.86l75.2,54.09-18.47,33.64h46.18l15.17-27.05,10.55,1.32v23.76h.03Z"/>
            <g class="cls-4">
              <rect class="cls-1" x="213.22" y="91.32" width="156" height="800"/>
              <rect class="cls-1" x="374.22" y="91.32" width="156" height="800"/>
              <rect class="cls-1" x="535.21" y="91.32" width="156" height="800"/>
              <rect class="cls-1" x="696.2" y="91.32" width="156" height="800"/>
              <rect class="cls-1" x="857.2" y="91.32" width="156" height="800"/>
            </g>
          </g>
          <circle class="cls-1" cx="613.22" cy="491.32" r="400"/>
        </g>
      </g>
    </g>
  </g>
</svg>